<svg version="1.1" xmlns="http://www.w3.org/2000/svg" xmlns:xlink="http://www.w3.org/1999/xlink" viewBox="250 150 1000 700">
    <g>
        <path fill="#17FFC4" d="M339.27056828,513.50447399 C339.27056828,651.44487134,451.67266618,763.35877863,589.36147737,763.35877863 C727.05028856,763.35877863,839.27056828,651.73626207,839.27056828,513.50447399 C839.27056828,375.27268591,727.23210674,263.35877863,589.36147737,263.35877863 C451.490848,263.35877863,339.27056828,375.56407664,339.27056828,513.50447399Z M490.82612383,578.73902145 C490.82612383,578.73902145,717.4927905,578.73902145,717.4927905,578.73902145 C717.4927905,578.73902145,755.27056828,616.51709924,755.27056828,616.51709924 C755.27056828,616.51709924,755.27056828,654.29457701,755.27056828,654.29457701 C755.27056828,654.29457701,415.27056828,654.29457701,415.27056828,654.29457701 C415.27056828,654.29457701,490.82612383,578.73902145,490.82612383,578.73902145Z M415.27056828,427.62821374 C415.27056828,427.62821374,490.82612383,352.07235478,490.82612383,352.07235478 C490.82612383,352.07235478,755.27056828,352.07235478,755.27056828,352.07235478 C755.27056828,352.07235478,755.27056828,389.85058015,755.27056828,389.85058015 C755.27056828,389.85058015,717.4927905,427.62821374,717.4927905,427.62821374 C717.4927905,427.62821374,528.60390161,427.62821374,528.60390161,427.62821374 C528.60390161,427.62821374,490.82612383,465.40568812,490.82612383,465.40568812 C490.82612383,465.40568812,490.82612383,540.96124367,490.82612383,540.96124367 C490.82612383,540.96124367,415.27056828,616.51709924,415.27056828,616.51709924 C415.27056828,616.51709924,415.27056828,427.62821374,415.27056828,427.62821374Z "/>
    </g>
</svg>
