<svg version="1.1" xmlns="http://www.w3.org/2000/svg" xmlns:xlink="http://www.w3.org/1999/xlink" viewBox="0,0,1250,1030">
	<g>
		<path fill="#17FFC4" d="M0,0M0,517.14817881 C0,861.99917219,281.00524476,1141.7839404,625.22727273,1141.7839404 C969.4493007,1141.7839404,1250,862.72764901,1250,517.14817881 C1250,171.56870861,969.90384615,-108.2160596,625.22727273,-108.2160596 C280.5506993,-108.2160596,0,172.29718543,0,517.14817881Z M378.88888889,680.23454746 C378.88888889,680.23454746,945.55555556,680.23454746,945.55555556,680.23454746 C945.55555556,680.23454746,1040,774.67899191,1040,774.67899191 C1040,774.67899191,1040,869.12343635,1040,869.12343635 C1040,869.12343635,190,869.12343635,190,869.12343635 C190,869.12343635,378.88888889,680.23454746,378.88888889,680.23454746Z M190,302.45676968 C190,302.45676968,378.88888889,113.56788079,378.88888889,113.56788079 C378.88888889,113.56788079,1040,113.56788079,1040,113.56788079 C1040,113.56788079,1040,208.01232524,1040,208.01232524 C1040,208.01232524,945.55555556,302.45676968,945.55555556,302.45676968 C945.55555556,302.45676968,473.33333333,302.45676968,473.33333333,302.45676968 C473.33333333,302.45676968,378.88888889,396.90121413,378.88888889,396.90121413 C378.88888889,396.90121413,378.88888889,585.79010302,378.88888889,585.79010302 C378.88888889,585.79010302,190,774.67899191,190,774.67899191 C190,774.67899191,190,302.45676968,190,302.45676968Z "/>
	</g>
</svg>